<?xml version="1.0" encoding="UTF-8"?>
<svg id="_图层_1" data-name="图层 1" xmlns="http://www.w3.org/2000/svg" viewBox="0 0 134.78 134.78">
  <defs>
    <style>
      .cls-1 {
        fill: #313333;
      }
    </style>
  </defs>
  <path class="cls-1" d="M101.61,0c2.26.52,4.55.84,6.78,1.51,11.75,3.52,21.36,13.12,24.87,24.87.67,2.23.99,4.52,1.51,6.78v68.44c-2.17,17.6-16.33,31.63-34.08,33.18H33.84C16.04,133.08,1.7,118.74.01,100.94V34.08C1.11,17.02,16.11,1.5,33.18,0h68.44ZM34.44,12.19c-11.97,1.38-21.41,11.17-22.33,23.21v64.25c1.1,12.12,10.68,21.78,22.79,23.02h64.76c12.12-1.09,21.78-10.67,23.02-22.77V35.13c-1.08-12.02-10.54-21.66-22.54-22.99l-65.69.04Z"/>
  <path class="cls-1" d="M92.05,42.73c18.46,18.46,10.49,50.38-14.38,57.95-26.85,8.17-52-17.21-43.44-43.97,7.86-24.6,39.48-32.33,57.83-13.98ZM64.97,44.82c-17.87,1.75-26.51,23.34-14.94,37.16,9.94,11.88,29.15,10.31,36.89-3.11,9.35-16.2-3.45-35.87-21.95-34.06Z"/>
  <path class="cls-1" d="M97.23,37.55c-8.28-8.28,4.74-20.96,12.8-12.41s-4.71,20.5-12.8,12.41Z"/>
</svg>